<svg xmlns="http://www.w3.org/2000/svg" width="26" height="25" viewBox="0 0 26 25" fill="none">
  <path fill-rule="evenodd" clip-rule="evenodd" d="M15.9271 3.45857L12.5724 0.988917C11.2375 0.00616068 9.35512 0.980736 9.38708 2.6381L9.46739 6.80302L6.08196 9.23034C4.73479 10.1963 5.07998 12.2876 6.6661 12.7694L9.466 13.6198L0.792893 22.2929C0.402369 22.6835 0.402369 23.3166 0.792893 23.7071C1.18342 24.0977 1.81658 24.0977 2.20711 23.7071L10.9614 14.9529L11.9144 17.9499C12.4167 19.5296 14.5124 19.8476 15.4607 18.488L17.8438 15.0712L22.0094 15.0974C23.6671 15.1078 24.6171 13.2129 23.6171 11.8909L21.104 8.56862L22.4161 4.61496C22.9383 3.04168 21.4297 1.5526 19.8633 2.09515L15.9271 3.45857ZM20.5179 3.985L15.5881 5.69255L11.3867 2.59954L11.4873 7.81573L7.24735 10.8557L12.2393 12.372L13.8203 17.3438L16.8049 13.0647L22.022 13.0974L18.8746 8.93659L20.5179 3.985Z" fill="white"/>
  <path fill-rule="evenodd" clip-rule="evenodd" d="M17.4554 18.9849C16.7221 18.9849 16.0964 19.5154 15.9765 20.2388L15.5171 23.0111C15.3658 23.9243 16.0702 24.7552 16.996 24.7552H17.2675C18.0082 24.7552 18.6378 24.2142 18.7495 23.4821L19.1721 20.7098C19.3104 19.8024 18.6081 18.9849 17.6902 18.9849H17.4554ZM17.6902 20.3486H17.4554C17.3892 20.3486 17.3327 20.3965 17.3219 20.4618L16.8625 23.234C16.8488 23.3165 16.9124 23.3915 16.996 23.3915H17.2675C17.3344 23.3915 17.3912 23.3426 17.4013 23.2765L17.824 20.5043C17.8364 20.4224 17.773 20.3486 17.6902 20.3486Z" fill="white"/>
  <path d="M22.3949 18.9849H20.1203C20.0662 18.9849 20.0203 19.0244 20.0124 19.0778L19.183 24.6299C19.1731 24.6959 19.2242 24.7552 19.2909 24.7552H20.3281C20.3813 24.7552 20.4268 24.7167 20.4356 24.6642L20.8056 22.4746C20.8145 22.4221 20.8599 22.3837 20.9132 22.3837H21.7941C21.847 22.3837 21.8923 22.3457 21.9015 22.2937L22.0721 21.3324C22.084 21.2656 22.0326 21.2043 21.9647 21.2043H21.1461C21.0791 21.2043 21.0279 21.1445 21.0383 21.0783L21.1734 20.2185C21.1817 20.1654 21.2274 20.1263 21.2811 20.1263H22.2256C22.2783 20.1263 22.3234 20.0887 22.3329 20.0369L22.5022 19.1136C22.5145 19.0466 22.4631 18.9849 22.3949 18.9849Z" fill="white"/>
  <path d="M25.3605 18.9849H23.0858C23.0318 18.9849 22.9859 19.0244 22.9779 19.0778L22.1485 24.6299C22.1387 24.6959 22.1897 24.7552 22.2564 24.7552H23.2936C23.3468 24.7552 23.3923 24.7167 23.4012 24.6642L23.7711 22.4746C23.78 22.4221 23.8255 22.3837 23.8787 22.3837H24.7596C24.8125 22.3837 24.8578 22.3457 24.8671 22.2937L25.0377 21.3324C25.0495 21.2656 24.9981 21.2043 24.9302 21.2043H24.1116C24.0446 21.2043 23.9934 21.1445 24.0038 21.0783L24.1389 20.2185C24.1472 20.1654 24.1929 20.1263 24.2467 20.1263H25.1911C25.2438 20.1263 25.2889 20.0887 25.2984 20.0369L25.4678 19.1136C25.48 19.0466 25.4286 18.9849 25.3605 18.9849Z" fill="white"/>
</svg>