<svg xmlns="http://www.w3.org/2000/svg" width="14" height="14" viewBox="0 0 14 14" fill="none">
<path fill-rule="evenodd" clip-rule="evenodd" d="M13.5 1.42955C13.5 0.835538 12.9852 0.372481 12.3945 0.435129L4.89454 1.23055C4.38593 1.2845 4 1.71352 4 2.22498V9.73173C3.62497 9.58359 3.20011 9.50002 2.75 9.50002C1.23122 9.50002 0 10.4514 0 11.625C0 12.7986 1.23122 13.75 2.75 13.75C4.22771 13.75 5.43319 12.8494 5.49732 11.7197H5.5V2.67475L12 1.98538V8.73173C11.625 8.58359 11.2001 8.50002 10.75 8.50002C9.23122 8.50002 8 9.45142 8 10.625C8 11.7986 9.23122 12.75 10.75 12.75C12.2573 12.75 13.4813 11.813 13.4998 10.6516L13.5 10.625V1.42955ZM12 10.625C12 10.5971 11.9892 10.473 11.7774 10.3093C11.5638 10.1443 11.2056 10 10.75 10C10.2944 10 9.93621 10.1443 9.72263 10.3093C9.51084 10.473 9.5 10.5971 9.5 10.625C9.5 10.6529 9.51084 10.777 9.72263 10.9407C9.93621 11.1057 10.2944 11.25 10.75 11.25C11.2056 11.25 11.5638 11.1057 11.7774 10.9407C11.9892 10.777 12 10.6529 12 10.625ZM4 11.625C4 11.5971 3.98916 11.473 3.77737 11.3093C3.56379 11.1443 3.20556 11 2.75 11C2.29444 11 1.93621 11.1443 1.72263 11.3093C1.51084 11.473 1.5 11.5971 1.5 11.625C1.5 11.6529 1.51084 11.777 1.72263 11.9407C1.93621 12.1057 2.29444 12.25 2.75 12.25C3.20556 12.25 3.56379 12.1057 3.77737 11.9407C3.98916 11.777 4 11.6529 4 11.625Z" fill="white"/>
</svg>