<svg xmlns="http://www.w3.org/2000/svg" width="24" height="24" viewBox="0 0 24 24" fill="none">
  <path fill-rule="evenodd" clip-rule="evenodd" d="M12 21.399C13.2705 22.6955 15.0413 23.5 17 23.5C20.866 23.5 24 20.366 24 16.5C24 13.2013 21.7183 10.4355 18.647 9.69486C18.9276 8.84516 19.0435 7.94681 18.9854 7.04836C18.9081 5.85242 18.525 4.69637 17.8729 3.6909C17.2208 2.68544 16.3214 1.86424 15.2609 1.30595C14.2005 0.747664 13.0145 0.470984 11.8165 0.502407C10.6184 0.533831 9.44855 0.872307 8.41883 1.48542C7.3891 2.09853 6.53404 2.96575 5.93551 4.00402C5.33698 5.04229 5.01504 6.21683 5.00052 7.41518C4.99109 8.19277 5.11132 8.96349 5.35351 9.69639C5.27324 9.71582 5.19322 9.73669 5.11348 9.759C3.69475 10.156 2.43745 10.9906 1.52063 12.1438C0.603805 13.297 0.0742036 14.7101 0.00723784 16.1818C-0.0597279 17.6535 0.339356 19.1089 1.14766 20.3406C1.95596 21.5723 3.13228 22.5176 4.50909 23.0418C5.88591 23.5661 7.39303 23.6425 8.81585 23.2604C10.0283 22.9347 11.1269 22.2901 12 21.399ZM14.3293 3.07568C13.5718 2.6769 12.7246 2.47927 11.8689 2.50172C11.0132 2.52416 10.1775 2.76593 9.44202 3.20387C8.7065 3.64181 8.09574 4.26125 7.66822 5.00287C7.2407 5.74449 7.01074 6.58345 7.00037 7.43941C6.99171 8.15439 7.13649 8.86123 7.42303 9.5128C8.10228 9.55392 8.77601 9.6941 9.42229 9.93247C10.3994 10.2929 11.2785 10.8647 12 11.601C13.1784 10.3985 14.7872 9.61924 16.5771 9.51257C16.8995 8.77924 17.0414 7.97837 16.9896 7.1774C16.9344 6.32316 16.6607 5.49741 16.1949 4.77922C15.7291 4.06103 15.0867 3.47446 14.3293 3.07568ZM10.799 13.2492C10.2458 12.6028 9.5345 12.1055 8.73021 11.8089C7.7429 11.4448 6.66587 11.4014 5.65249 11.685C4.63911 11.9686 3.74104 12.5647 3.08616 13.3884C2.43129 14.2122 2.053 15.2215 2.00517 16.2727C1.95734 17.324 2.2424 18.3635 2.81976 19.2433C3.39712 20.1231 4.23734 20.7983 5.22078 21.1727C6.20422 21.5472 7.28074 21.6018 8.29704 21.3288C9.27204 21.067 10.1439 20.5163 10.799 19.7508C10.2887 18.7794 10 17.6734 10 16.5C10 15.3266 10.2887 14.2206 10.799 13.2492ZM17 21.5C19.7614 21.5 22 19.2614 22 16.5C22 13.7386 19.7614 11.5 17 11.5C14.2386 11.5 12 13.7386 12 16.5C12 19.2614 14.2386 21.5 17 21.5Z" fill="white"/>
</svg>