<svg xmlns="http://www.w3.org/2000/svg" width="24" height="21" viewBox="0 0 24 21" fill="none">
  <path fill-rule="evenodd" clip-rule="evenodd" d="M12.6011 0.173834C12.323 -0.0579436 11.919 -0.0579458 11.6408 0.173834L0.861809 9.15635C0.143294 9.75511 0.566697 10.9246 1.50199 10.9246H3.14534L3.55034 19.0244C3.60356 20.0889 4.48209 20.9246 5.54784 20.9246H18.6941C19.7598 20.9246 20.6384 20.0889 20.6916 19.0244L21.0966 10.9246H22.7399C23.6752 10.9246 24.0986 9.75511 23.3801 9.15635L12.6011 0.173834ZM5.07159 9.39961C5.05829 9.1335 4.83865 8.92457 4.57222 8.92457H4.26404L12.121 2.37714L19.9779 8.92457H19.6697C19.4033 8.92457 19.1836 9.1335 19.1703 9.3996L18.6941 18.9246H13V13.5C13 13.2239 12.7761 13 12.5 13H11.5C11.2239 13 11 13.2239 11 13.5V18.9246H6.02347C5.75703 18.9246 5.5374 18.7156 5.52409 18.4495L5.07159 9.39961Z" fill="#8A8B8F"/>
</svg>