<svg xmlns="http://www.w3.org/2000/svg" width="250" height="250" viewBox="0 0 250 250" fill="none">
<path fill-rule="evenodd" clip-rule="evenodd" d="M0 1.5C0 0.671573 0.671573 0 1.5 0H17.5C18.3284 0 19 0.671573 19 1.5C19 2.32843 18.3284 3 17.5 3H3V17.5C3 18.3284 2.32843 19 1.5 19C0.671573 19 0 18.3284 0 17.5V1.5Z" fill="white"/>
<path fill-rule="evenodd" clip-rule="evenodd" d="M250 1.5C250 0.671573 249.328 0 248.5 0H232.5C231.672 0 231 0.671573 231 1.5C231 2.32843 231.672 3 232.5 3H247V17.5C247 18.3284 247.672 19 248.5 19C249.328 19 250 18.3284 250 17.5V1.5Z" fill="white"/>
<path fill-rule="evenodd" clip-rule="evenodd" d="M250 248.5C250 249.328 249.328 250 248.5 250H232.5C231.672 250 231 249.328 231 248.5C231 247.672 231.672 247 232.5 247H247V232.5C247 231.672 247.672 231 248.5 231C249.328 231 250 231.672 250 232.5V248.5Z" fill="white"/>
<path fill-rule="evenodd" clip-rule="evenodd" d="M0 248.5C0 249.328 0.671573 250 1.5 250H17.5C18.3284 250 19 249.328 19 248.5C19 247.672 18.3284 247 17.5 247H3V232.5C3 231.672 2.32843 231 1.5 231C0.671573 231 0 231.672 0 232.5V248.5Z" fill="white"/>
</svg>