<svg xmlns="http://www.w3.org/2000/svg" width="25" height="25" viewBox="0 0 25 25" fill="none">
  <path d="M12 2.5C10.6868 2.5 9.38642 2.75866 8.17317 3.2612C6.95991 3.76375 5.85752 4.50035 4.92893 5.42893C4.00035 6.35752 3.26375 7.45991 2.7612 8.67317C2.25866 9.88642 2 11.1868 2 12.5C2 13.8132 2.25866 15.1136 2.7612 16.3268C3.26375 17.5401 4.00035 18.6425 4.92893 19.5711C5.85752 20.4997 6.95991 21.2362 8.17317 21.7388C9.07731 22.1133 10.0298 22.3524 11 22.4499V20.5C11 19.9477 11.4477 19.5 12 19.5C12.5523 19.5 13 19.9477 13 20.5L13 23.5C13 24.0523 12.5523 24.5 12 24.5C10.4241 24.5 8.86371 24.1896 7.4078 23.5866C5.95189 22.9835 4.62902 22.0996 3.51472 20.9853C2.40042 19.871 1.5165 18.5481 0.913446 17.0922C0.310389 15.6363 0 14.0759 0 12.5C0 10.9241 0.310389 9.36371 0.913446 7.9078C1.5165 6.45189 2.40042 5.12902 3.51472 4.01472C4.62902 2.90042 5.95189 2.0165 7.4078 1.41345C8.86371 0.810389 10.4241 0.5 12 0.5C12.5523 0.5 13 0.947715 13 1.5C13 2.05228 12.5523 2.5 12 2.5Z" fill="white"/>
  <path d="M23.0413 12.7977C23.5898 12.8625 23.9819 13.3597 23.9171 13.9082C23.8483 14.4905 23.7369 15.0671 23.5838 15.6331C23.4396 16.1663 22.8905 16.4815 22.3574 16.3373C21.8242 16.1932 21.5089 15.6441 21.6531 15.1109C21.7807 14.6392 21.8736 14.1588 21.9309 13.6735C21.9957 13.125 22.4929 12.7329 23.0413 12.7977Z" fill="white"/>
  <path d="M22.3958 6.50599C22.1199 6.02753 21.5084 5.86331 21.0299 6.13917C20.5515 6.41504 20.3873 7.02654 20.6631 7.50499C20.9072 7.92834 21.12 8.36901 21.2996 8.82346C21.5027 9.33706 22.0836 9.58882 22.5972 9.38577C23.1108 9.18272 23.3626 8.60176 23.1596 8.08815C22.944 7.54281 22.6887 7.014 22.3958 6.50599Z" fill="white"/>
  <path d="M15.5923 2.05511C15.8184 1.55126 16.4102 1.32614 16.9141 1.55231C17.4491 1.79245 17.9657 2.07148 18.4599 2.38716C18.9253 2.68447 19.0616 3.30279 18.7643 3.76822C18.467 4.23365 17.8487 4.36994 17.3833 4.07263C16.9714 3.80957 16.5409 3.57704 16.0951 3.37692C15.5912 3.15076 15.3661 2.55896 15.5923 2.05511Z" fill="white"/>
  <path d="M10.1146 14.4557C12.7486 16.3992 15.8627 8.45623 15.367 8.03066C14.8714 7.6051 7.48054 12.5122 10.1146 14.4557Z" fill="white"/>
  <path fill-rule="evenodd" clip-rule="evenodd" d="M16.8663 19.2109C16.1941 19.2109 15.6206 19.6972 15.5107 20.3603L15.0896 22.9014C14.9509 23.7386 15.5966 24.5001 16.4452 24.5001H16.6941C17.373 24.5001 17.9501 24.0043 18.0524 23.3332L18.4398 20.7921C18.5667 19.9603 17.9229 19.2109 17.0815 19.2109H16.8663ZM17.0815 20.4609H16.8663C16.8056 20.4609 16.7538 20.5048 16.7439 20.5647L16.3228 23.1058C16.3103 23.1814 16.3686 23.2501 16.4452 23.2501H16.6941C16.7554 23.2501 16.8075 23.2053 16.8167 23.1448L17.2041 20.6037C17.2156 20.5286 17.1575 20.4609 17.0815 20.4609Z" fill="white"/>
  <path d="M21.394 19.2109H19.309C19.2594 19.2109 19.2174 19.2472 19.2101 19.2962L18.4498 24.3853C18.4408 24.4458 18.4876 24.5001 18.5487 24.5001H19.4994C19.5482 24.5001 19.5899 24.4649 19.598 24.4168L19.9372 22.4097C19.9453 22.3616 19.987 22.3264 20.0358 22.3264H20.8432C20.8917 22.3264 20.9332 22.2916 20.9417 22.2438L21.0981 21.3628C21.109 21.3015 21.0618 21.2453 20.9996 21.2453H20.2493C20.1878 21.2453 20.1409 21.1905 20.1505 21.1298L20.2743 20.3417C20.2819 20.2931 20.3238 20.2572 20.373 20.2572H21.2388C21.287 20.2572 21.3284 20.2228 21.3371 20.1753L21.4923 19.329C21.5036 19.2675 21.4564 19.2109 21.394 19.2109Z" fill="white"/>
  <path d="M24.1122 19.2109H22.0272C21.9777 19.2109 21.9356 19.2472 21.9283 19.2962L21.1681 24.3853C21.1591 24.4458 21.2059 24.5001 21.267 24.5001H22.2177C22.2665 24.5001 22.3082 24.4649 22.3163 24.4168L22.6554 22.4097C22.6636 22.3616 22.7052 22.3264 22.754 22.3264H23.5615C23.61 22.3264 23.6515 22.2916 23.66 22.2438L23.8163 21.3628C23.8272 21.3015 23.7801 21.2453 23.7179 21.2453H22.9675C22.9061 21.2453 22.8592 21.1905 22.8687 21.1298L22.9925 20.3417C23.0002 20.2931 23.0421 20.2572 23.0913 20.2572H23.957C24.0053 20.2572 24.0467 20.2228 24.0554 20.1753L24.2106 19.329C24.2218 19.2675 24.1747 19.2109 24.1122 19.2109Z" fill="white"/>
</svg>