<svg xmlns="http://www.w3.org/2000/svg" width="23" height="25" viewBox="0 0 23 25" fill="none">
  <path d="M6.00001 1.5C6.00001 0.947715 6.44772 0.5 7.00001 0.5H13.5C14.0523 0.5 14.5 0.947715 14.5 1.5C14.5 2.05228 14.0523 2.5 13.5 2.5H7.00001C6.44772 2.5 6.00001 2.05228 6.00001 1.5Z" fill="white"/>
  <path d="M18.4556 4.05274C18.8573 4.43179 18.8756 5.06469 18.4965 5.46636L17.2624 6.77413C18.2201 7.67241 19.0004 8.75029 19.5556 9.95241C19.7871 10.4538 19.5684 11.048 19.067 11.2795C18.5656 11.5111 17.9714 11.2924 17.7398 10.791C17.0902 9.38433 16.0576 8.18905 14.7602 7.34201C13.4629 6.49496 11.9532 6.03037 10.4041 6.00144C8.85492 5.97251 7.32895 6.3804 6.00086 7.17842C4.67278 7.97643 3.59625 9.13231 2.89455 10.5137C2.19286 11.8951 1.89435 13.4462 2.0332 14.9894C2.17206 16.5325 2.74267 18.0054 3.6797 19.2393C4.61673 20.4733 5.88231 21.4184 7.33152 21.9665C8.78074 22.5146 10.355 22.6436 11.8741 22.3386C12.4156 22.2298 12.9427 22.5807 13.0514 23.1221C13.1601 23.6636 12.8093 24.1907 12.2678 24.2994C10.3805 24.6784 8.42455 24.5182 6.62401 23.8372C4.82347 23.1562 3.25109 21.982 2.0869 20.4489C0.92271 18.9158 0.213769 17.0859 0.0412504 15.1686C-0.131269 13.2513 0.239608 11.3242 1.11142 9.60794C1.98322 7.89166 3.32072 6.45557 4.97077 5.46409C6.62082 4.47262 8.51672 3.96584 10.4414 4.00179C12.2928 4.03636 14.0989 4.57178 15.6684 5.54922L17.042 4.0937C17.421 3.69203 18.0539 3.67369 18.4556 4.05274Z" fill="white"/>
  <path d="M11.5 10C11.5 9.44771 11.0523 9 10.5 9C9.94772 9 9.50001 9.44771 9.50001 10V14.0401L6.34921 16.7407C5.92989 17.1002 5.88133 17.7315 6.24075 18.1508C6.60017 18.5701 7.23147 18.6187 7.6508 18.2593L11.5 14.9599V10Z" fill="white"/>
  <path d="M18.4802 16.1598C18.4026 16.2985 18.368 16.4572 18.3806 16.6157C18.4244 17.1662 18.0137 17.6481 17.4631 17.6919C16.9126 17.7358 16.4308 17.325 16.3869 16.7745C16.3429 16.2217 16.4638 15.6682 16.7343 15.1841C17.0048 14.7 17.4128 14.307 17.9067 14.0548C18.4006 13.8026 18.9581 13.7025 19.5089 13.7672C20.0597 13.8319 20.5789 14.0584 21.0009 14.4182C21.4229 14.7779 21.7288 15.2547 21.8798 15.7883C22.0308 16.3219 22.0202 16.8883 21.8493 17.4159C21.7588 17.6952 21.6256 17.957 21.4556 18.1926C21.8339 18.5245 22.1327 18.94 22.3268 19.4085C22.5761 20.0105 22.6414 20.6729 22.5142 21.312C22.3871 21.9511 22.0733 22.5382 21.6126 22.9989C21.1518 23.4597 20.5648 23.7735 19.9257 23.9006C19.2866 24.0277 18.6241 23.9625 18.0221 23.7131C17.4201 23.4637 16.9056 23.0415 16.5435 22.4997C16.1815 21.9579 15.9883 21.3209 15.9883 20.6693C15.9883 20.117 16.436 19.6693 16.9883 19.6693C17.5406 19.6693 17.9883 20.117 17.9883 20.6693C17.9883 20.9253 18.0642 21.1756 18.2065 21.3885C18.3487 21.6014 18.5509 21.7674 18.7875 21.8653C19.024 21.9633 19.2844 21.989 19.5355 21.939C19.7866 21.8891 20.0173 21.7658 20.1984 21.5847C20.3794 21.4036 20.5027 21.173 20.5527 20.9218C20.6026 20.6707 20.577 20.4104 20.479 20.1738C20.381 19.9373 20.2151 19.7351 20.0022 19.5928C19.7893 19.4506 19.539 19.3746 19.2829 19.3746C18.7306 19.3746 18.2829 18.9269 18.2829 18.3746C18.2829 17.9975 18.4916 17.6692 18.7999 17.4988C18.9306 17.418 19.082 17.3662 19.2457 17.3532C19.4042 17.3406 19.5554 17.2812 19.6801 17.1827C19.8049 17.0842 19.8976 16.9508 19.9466 16.7996C19.9956 16.6483 19.9987 16.486 19.9554 16.333C19.9121 16.18 19.8244 16.0433 19.7034 15.9402C19.5824 15.837 19.4336 15.7721 19.2757 15.7535C19.1178 15.735 18.9579 15.7637 18.8163 15.836C18.6747 15.9083 18.5578 16.021 18.4802 16.1598Z" fill="white"/>
</svg>