<svg width="18" height="16" viewBox="0 0 18 16" fill="none" xmlns="http://www.w3.org/2000/svg">
<path fill-rule="evenodd" clip-rule="evenodd" d="M4.73762 3.08873C4.79416 3.01013 4.85695 2.91391 4.93702 2.78418C4.96623 2.73683 5.04584 2.6055 5.10521 2.50755L5.10541 2.50721L5.17235 2.39691C5.83386 1.31483 6.31473 0.818176 7.18182 0.818176H10.3737C11.2408 0.818176 11.7217 1.31483 12.3832 2.39691L12.45 2.50703L12.4504 2.5077C12.5098 2.60564 12.5893 2.73686 12.6185 2.78418C12.6986 2.91391 12.7614 3.01013 12.8179 3.08873C12.8552 3.14056 12.8878 3.18174 12.9143 3.21211H15.1616C16.4837 3.21211 17.5556 4.28392 17.5556 5.60605V12.7879C17.5556 14.11 16.4837 15.1818 15.1616 15.1818H2.39394C1.0718 15.1818 0 14.11 0 12.7879V5.60605C0 4.28392 1.0718 3.21211 2.39394 3.21211H4.64121C4.66777 3.18174 4.70034 3.14056 4.73762 3.08873ZM2.39401 4.80809C1.9533 4.80809 1.59603 5.16535 1.59603 5.60607V12.7879C1.59603 13.2286 1.9533 13.5859 2.39401 13.5859H15.1617C15.6024 13.5859 15.9597 13.2286 15.9597 12.7879V5.60607C15.9597 5.16535 15.6024 4.80809 15.1617 4.80809H12.7677C12.2376 4.80809 11.8801 4.51795 11.5224 4.02068C11.4401 3.90627 11.3586 3.78134 11.2605 3.62236C11.2268 3.56788 11.1395 3.42379 11.0796 3.32497L11.0216 3.22935C10.6607 2.63896 10.443 2.41415 10.3738 2.41415H7.18189C7.11268 2.41415 6.89502 2.63896 6.53409 3.22935L6.47608 3.32496C6.41619 3.42378 6.32886 3.56787 6.29523 3.62236C6.19712 3.78134 6.11559 3.90627 6.03329 4.02068C5.6756 4.51795 5.31808 4.80809 4.78795 4.80809H2.39401ZM4.78805 8.79797C4.78805 11.0015 6.57439 12.7879 8.77794 12.7879C10.9815 12.7879 12.7678 11.0015 12.7678 8.79797C12.7678 6.59441 10.9815 4.80807 8.77794 4.80807C6.57439 4.80807 4.78805 6.59441 4.78805 8.79797ZM11.1717 8.79797C11.1717 10.1201 10.0999 11.1919 8.7778 11.1919C7.45566 11.1919 6.38386 10.1201 6.38386 8.79797C6.38386 7.47583 7.45566 6.40403 8.7778 6.40403C10.0999 6.40403 11.1717 7.47583 11.1717 8.79797Z" fill="#DADADA"/>
</svg>
