<svg width="27" height="24" viewBox="0 0 27 24" fill="none" xmlns="http://www.w3.org/2000/svg">
<path d="M1.86324 16.878H18.728L17.8812 15.1533L3.81167 15.1278C3.33589 15.1278 2.92808 14.788 2.84312 14.3179L0.894682 3.41172C0.843706 3.12568 0.92017 2.83115 1.10708 2.60742C1.19946 2.49731 1.31469 2.40862 1.44477 2.34749C1.57485 2.28636 1.71668 2.25426 1.8604 2.25342L19.7588 2.19395L19.9118 1.47461C20.0081 1.01582 20.4215 0.681641 20.8917 0.681641H25.2671C25.5323 0.681641 25.7866 0.786966 25.974 0.974448C26.1615 1.16193 26.2668 1.41621 26.2668 1.68135C26.2668 1.94649 26.1615 2.20077 25.974 2.38825C25.7866 2.57573 25.5323 2.68105 25.2671 2.68105H21.7016L21.0333 5.85859L19.3878 13.8251L21.5062 17.283C21.6162 17.4315 21.6825 17.6078 21.6975 17.792C21.7125 17.9762 21.6757 18.1609 21.5912 18.3252C21.4212 18.6622 21.0786 18.8746 20.6991 18.8746H18.9206C19.2997 19.3782 19.5045 19.9916 19.504 20.622C19.504 22.2249 18.2012 23.5276 16.5983 23.5276C14.9954 23.5276 13.6926 22.2249 13.6926 20.622C13.6926 19.9904 13.9022 19.3759 14.276 18.8746H9.71362C10.0928 19.3782 10.2976 19.9916 10.297 20.622C10.297 22.2249 8.99429 23.5276 7.39136 23.5276C5.78843 23.5276 4.4857 22.2249 4.4857 20.622C4.4857 19.9904 4.69527 19.3759 5.06909 18.8746H1.8604C1.31099 18.8746 0.860697 18.4271 0.860697 17.8749C0.862343 17.61 0.968674 17.3566 1.15649 17.1698C1.34431 16.9831 1.59837 16.8782 1.86324 16.878ZM19.3425 4.16504L3.0357 4.21885L4.63296 13.1624L17.4422 13.1851L19.3425 4.16504ZM16.5983 21.5169C17.0911 21.5169 17.4932 21.1147 17.4932 20.622C17.4932 20.1292 17.0911 19.7271 16.5983 19.7271C16.1055 19.7271 15.7034 20.1292 15.7034 20.622C15.7034 20.8593 15.7977 21.0869 15.9655 21.2548C16.1333 21.4226 16.3609 21.5169 16.5983 21.5169ZM7.39136 21.5169C7.88413 21.5169 8.28628 21.1147 8.28628 20.622C8.28628 20.1292 7.88413 19.7271 7.39136 19.7271C6.89859 19.7271 6.49644 20.1292 6.49644 20.622C6.49644 20.8593 6.59072 21.0869 6.75856 21.2548C6.92639 21.4226 7.15401 21.5169 7.39136 21.5169Z" fill="white"/>
</svg>
